# xmcd CD database file
# Copyright (C) 1995-1998 Ti Kan
#
# Track frame offsets:
#	150
#	15504
#	31369
#	49339
#	66653
#	83705
#	96444
#	117789
#	132783
#	145866
#	160771
#	179774
#	191683
#	213587
#	225887
#	243668
#
# Disc length: 3420 seconds
#
# Revision: 2
# Processed by: cddbd v1.5.1PL2 Copyright (c) Steve Scherf et al.
# Submitted via: CDex 1.30Release
#
DISCID=e20d5a10
DTITLE=Thom Shepherd - Tonkyhonk
DYEAR=1900
DGENRE=
TTITLE0=Drinkin and Dialin
TTITLE1=Ghosts of New Orleans
TTITLE2=Without The Song
TTITLE3=Gentle On My Mind
TTITLE4=Redneck Yacht Club
TTITLE5=Drunk I Am
TTITLE6=Last Letter Home
TTITLE7=Mature Adults
TTITLE8=Round Here
TTITLE9=Bad Luck
TTITLE10=Whats New In New York
TTITLE11=Buck It Up
TTITLE12=Home To Me Duet with Lisa Shaffer
TTITLE13=All For The Love of a Girl
TTITLE14=The Rock
TTITLE15=Riding with Inmate Jerome - live_
EXTD=YEAR: 2005 ID3G:   2
EXTT0=
EXTT1=
EXTT2=
EXTT3=
EXTT4=
EXTT5=
EXTT6=
EXTT7=
EXTT8=
EXTT9=
EXTT10=
EXTT11=
EXTT12=
EXTT13=
EXTT14=
EXTT15=
PLAYORDER=
